<?xml version="1.0" encoding="iso-8859-1"?>
<!-- Generator: Adobe Illustrator 16.0.0, SVG Export Plug-In . SVG Version: 6.00 Build 0)  -->
<!DOCTYPE svg PUBLIC "-//W3C//DTD SVG 1.1//EN" "http://www.w3.org/Graphics/SVG/1.1/DTD/svg11.dtd">
<svg version="1.1" id="Capa_1" xmlns="http://www.w3.org/2000/svg" xmlns:xlink="http://www.w3.org/1999/xlink" x="0px" y="0px"
	 width="787.067px" height="787.067px" viewBox="0 0 787.067 787.067" style="enable-background:new 0 0 787.067 787.067;"
	 xml:space="preserve">
<g>
	<g>
		<rect x="232.662" y="100.768" width="62.186" height="240.137"/>
		<path d="M220.919,735.386c0-8.468,1.544-16.577,4.35-24.076H107.086V526.017h180.923v140.51c0.604-0.016,1.208-0.046,1.816-0.046
			h25.062V509.038c0-7.852-6.363-14.214-14.215-14.214H94.421c-7.85,0-14.213,6.362-14.213,14.214v233.978
			c0,7.851,6.364,14.216,14.213,14.216H224.49C222.186,750.36,220.919,743.021,220.919,735.386z"/>
		<path d="M498.066,274.739V147.277H435.88v144.31C454.414,281.347,475.57,275.298,498.066,274.739z"/>
		<path d="M599.675,316.626V193.784h-62.184v85.75C561.51,286.128,582.897,299.147,599.675,316.626z"/>
		<path d="M655.18,0h-485.7c-28.542,0-51.679,23.138-51.679,51.68v338.472c0,28.541,23.137,51.679,51.679,51.679h199.462
			c-2.331-9.966-3.578-20.339-3.578-31.005c0-5.242,0.307-10.414,0.889-15.503H174.598V46.509h475.465v348.812h-13.327
			c0.579,5.091,0.887,10.263,0.887,15.505c0,10.665-1.247,21.038-3.578,31.004h21.135c28.541,0,51.68-23.139,51.68-51.68V51.679
			C706.859,23.138,683.721,0,655.18,0z"/>
		<path d="M646.139,686.926v-95.153c0-28.541-23.14-51.678-51.679-51.678H408.528c-28.542,0-51.678,23.137-51.678,51.678v91.938
			h-67.026c-28.542,0-51.679,23.138-51.679,51.678c0,28.541,23.137,51.68,51.679,51.68h338.337c28.541,0,51.679-23.139,51.679-51.68
			C679.841,713.168,665.816,694.228,646.139,686.926z"/>
		<circle cx="501.495" cy="410.826" r="118.904"/>
		<path d="M396.457,324.048v-103.21H334.27v120.069h50.272C388.093,334.98,392.075,329.344,396.457,324.048z"/>
	</g>
</g>
<g>
</g>
<g>
</g>
<g>
</g>
<g>
</g>
<g>
</g>
<g>
</g>
<g>
</g>
<g>
</g>
<g>
</g>
<g>
</g>
<g>
</g>
<g>
</g>
<g>
</g>
<g>
</g>
<g>
</g>
</svg>
